<?xml version="1.0" encoding="UTF-8"?>
<!DOCTYPE svg PUBLIC "-//W3C//DTD SVG 1.1//EN" "http://www.w3.org/Graphics/SVG/1.1/DTD/svg11.dtd">
<!-- Creator: CorelDRAW -->
<svg xmlns="http://www.w3.org/2000/svg" xml:space="preserve" width="32mm" height="32mm" version="1.1" style="shape-rendering:geometricPrecision; text-rendering:geometricPrecision; image-rendering:optimizeQuality; fill-rule:evenodd; clip-rule:evenodd"
viewBox="0 0 673.43 673.43"
 xmlns:xlink="http://www.w3.org/1999/xlink"
 xmlns:xodm="http://www.corel.com/coreldraw/odm/2003">
 <defs>
  <style type="text/css">
   <![CDATA[
    .fil0 {fill:#393185}
    .fil1 {fill:#FEFEFE;fill-rule:nonzero}
   ]]>
  </style>
 </defs>
 <g id="Layer_x0020_1">
  <metadata id="CorelCorpID_0Corel-Layer"/>
  <g id="_2206780602224">
   <path class="fil0" d="M224.48 0l224.47 0c123.95,0 224.48,100.52 224.48,224.48l0 224.47c0,123.95 -100.52,224.47 -224.48,224.47l-224.47 0c-123.95,-0 -224.47,-100.52 -224.47,-224.48l-0 -224.47c0,-123.95 100.52,-224.48 224.48,-224.48z"/>
   <path class="fil1" d="M388.91 284.52l0 -104.39 -104.39 0 0 104.39 -87 0 139.19 139.19 139.19 -139.19 -87 0zm-226.19 173.99l347.98 0 0 34.8 -347.98 0 0 -34.8 0 0z"/>
  </g>
 </g>
</svg>
