<?xml version="1.0" encoding="UTF-8"?>
<!DOCTYPE svg PUBLIC "-//W3C//DTD SVG 1.1//EN" "http://www.w3.org/Graphics/SVG/1.1/DTD/svg11.dtd">
<!-- Creator: CorelDRAW -->
<svg xmlns="http://www.w3.org/2000/svg" xml:space="preserve" width="32mm" height="32mm" version="1.1" style="shape-rendering:geometricPrecision; text-rendering:geometricPrecision; image-rendering:optimizeQuality; fill-rule:evenodd; clip-rule:evenodd"
viewBox="0 0 760.15 760.15"
 xmlns:xlink="http://www.w3.org/1999/xlink"
 xmlns:xodm="http://www.corel.com/coreldraw/odm/2003">
 <defs>
  <style type="text/css">
   <![CDATA[
    .fil0 {fill:#393185}
    .fil1 {fill:#FEFEFE;fill-rule:nonzero}
   ]]>
  </style>
 </defs>
 <g id="Layer_x0020_1">
  <metadata id="CorelCorpID_0Corel-Layer"/>
  <g id="_2206774206496">
   <path class="fil0" d="M253.38 0l253.38 0c139.92,0 253.38,113.47 253.38,253.38l0 253.38c0,139.92 -113.47,253.38 -253.38,253.38l-253.38 0c-139.92,-0 -253.38,-113.47 -253.38,-253.39l-0 -253.38c0,-139.92 113.47,-253.38 253.39,-253.38z"/>
   <path class="fil1" d="M522.11 457.07c-23.73,-20.3 -47.81,-32.59 -71.25,-12.32l-13.99 12.25c-10.24,8.89 -29.28,50.43 -102.89,-34.24 -73.59,-84.57 -29.8,-97.74 -19.55,-106.55l14.07 -12.26c23.32,-20.31 14.52,-45.88 -2.3,-72.2l-10.15 -15.94c-16.89,-26.26 -35.29,-43.5 -58.66,-23.22l-12.63 11.04c-10.33,7.53 -39.21,31.99 -46.22,78.47 -8.43,55.77 18.17,119.63 79.1,189.69 60.85,70.1 120.44,105.31 176.88,104.7 46.9,-0.51 75.23,-25.68 84.09,-34.83l12.68 -11.05c23.31,-20.27 8.83,-40.9 -14.92,-61.24l-14.27 -12.28z"/>
  </g>
 </g>
</svg>
