<?xml version="1.0" encoding="UTF-8"?>
<!DOCTYPE svg PUBLIC "-//W3C//DTD SVG 1.1//EN" "http://www.w3.org/Graphics/SVG/1.1/DTD/svg11.dtd">
<!-- Creator: CorelDRAW -->
<svg xmlns="http://www.w3.org/2000/svg" xml:space="preserve" width="32mm" height="32mm" version="1.1" style="shape-rendering:geometricPrecision; text-rendering:geometricPrecision; image-rendering:optimizeQuality; fill-rule:evenodd; clip-rule:evenodd"
viewBox="0 0 7500.73 7500.73"
 xmlns:xlink="http://www.w3.org/1999/xlink"
 xmlns:xodm="http://www.corel.com/coreldraw/odm/2003">
 <defs>
  <style type="text/css">
   <![CDATA[
    .fil0 {fill:#393185}
    .fil1 {fill:#FEFEFE;fill-rule:nonzero}
   ]]>
  </style>
 </defs>
 <g id="Layer_x0020_1">
  <metadata id="CorelCorpID_0Corel-Layer"/>
  <g id="_2206780607024">
   <path class="fil0" d="M2500.25 0l2500.23 0c1380.6,0 2500.25,1119.65 2500.25,2500.25l0 2500.23c0,1380.6 -1119.65,2500.23 -2500.25,2500.23l-2500.23 0.02c-1380.6,-0.02 -2500.23,-1119.65 -2500.23,-2500.28l-0.02 -2500.21c0.02,-1380.6 1119.65,-2500.25 2500.28,-2500.25z"/>
   <path class="fil1" d="M4578.07 3756.55l1135.31 -986.37 0 1961.46 -1135.31 -975.1zm-1462.92 167.03l398.69 346.09c62.56,53.14 144.15,85.27 233.3,85.27l3.14 -0.02 -0.19 0 2.58 0c89.35,0 170.92,-32.3 234.23,-85.81l-0.56 0.38 398.69 -346.09 1211.91 1040.8 -3693.13 0.02 1211.34 -1040.63zm-1213.01 -1387.24l3696.99 0 -1775.77 1542.29c-19.95,15.73 -44.65,24.33 -70.08,24.33 0,0 -0.05,0 -0.07,0l-2.58 0.02 0.19 0 -2.58 0c-0.05,-0.02 -0.09,-0.02 -0.14,-0.02 -25.5,0 -50.25,-8.65 -70.18,-24.54l0.19 0.19 -1775.96 -1542.27zm-114.62 233.67l1135.12 986.35 -1135.12 974.56 0 -1960.9zm3986.78 -450.56c-44.3,-22.15 -96.34,-35.07 -151.54,-35.07l-3744.06 0c-53.47,0 -106.28,12.52 -154.09,36.36l2.02 -0.91c-116.85,57.64 -190.96,176.62 -191.03,306.94l0 2246.61c0.16,189.28 153.65,342.76 342.92,342.92l3743.71 0.02c189.28,-0.19 342.74,-153.67 342.92,-342.95l0 -2246.61c0,-134.19 -77.33,-250.48 -189.93,-306.4l-2.02 -0.91 1.1 0z"/>
  </g>
 </g>
</svg>
