<?xml version="1.0" encoding="UTF-8"?>
<!DOCTYPE svg PUBLIC "-//W3C//DTD SVG 1.1//EN" "http://www.w3.org/Graphics/SVG/1.1/DTD/svg11.dtd">
<!-- Creator: CorelDRAW -->
<svg xmlns="http://www.w3.org/2000/svg" xml:space="preserve" width="32mm" height="32mm" version="1.1" style="shape-rendering:geometricPrecision; text-rendering:geometricPrecision; image-rendering:optimizeQuality; fill-rule:evenodd; clip-rule:evenodd"
viewBox="0 0 679.36 679.36"
 xmlns:xlink="http://www.w3.org/1999/xlink"
 xmlns:xodm="http://www.corel.com/coreldraw/odm/2003">
 <defs>
  <style type="text/css">
   <![CDATA[
    .fil0 {fill:#393185}
    .fil1 {fill:#FEFEFE;fill-rule:nonzero}
   ]]>
  </style>
 </defs>
 <g id="Layer_x0020_1">
  <metadata id="CorelCorpID_0Corel-Layer"/>
  <g id="_2207265498944">
   <path class="fil0" d="M226.45 0l226.45 0c125.04,0 226.45,101.41 226.45,226.45l0 226.45c0,125.04 -101.41,226.45 -226.45,226.45l-226.45 0c-125.04,-0 -226.45,-101.41 -226.45,-226.46l-0 -226.45c0,-125.04 101.41,-226.45 226.46,-226.45z"/>
   <polygon class="fil1" points="512.31,202.26 373.74,339.68 512.31,477.1 477.67,511.74 339.1,374.32 201.69,511.74 167.04,477.1 304.46,339.68 167.04,202.26 201.69,167.62 339.1,305.04 477.67,167.62 "/>
  </g>
 </g>
</svg>
