<?xml version="1.0" encoding="UTF-8"?>
<!DOCTYPE svg PUBLIC "-//W3C//DTD SVG 1.1//EN" "http://www.w3.org/Graphics/SVG/1.1/DTD/svg11.dtd">
<!-- Creator: CorelDRAW -->
<svg xmlns="http://www.w3.org/2000/svg" xml:space="preserve" width="32mm" height="32mm" version="1.1" style="shape-rendering:geometricPrecision; text-rendering:geometricPrecision; image-rendering:optimizeQuality; fill-rule:evenodd; clip-rule:evenodd"
viewBox="0 0 199532.35 199532.35"
 xmlns:xlink="http://www.w3.org/1999/xlink"
 xmlns:xodm="http://www.corel.com/coreldraw/odm/2003">
 <defs>
  <style type="text/css">
   <![CDATA[
    .fil0 {fill:#393185}
    .fil1 {fill:#FEFEFE;fill-rule:nonzero}
   ]]>
  </style>
 </defs>
 <g id="Layer_x0020_1">
  <metadata id="CorelCorpID_0Corel-Layer"/>
  <g id="_2206780581296">
   <path class="fil0" d="M66510.99 0l66510.37 0c36726.42,0 66510.99,29784.57 66510.99,66510.99l0 66510.37c0,36726.42 -29784.57,66510.37 -66510.99,66510.37l-66510.37 0.62c-36726.42,-0.62 -66510.37,-29784.57 -66510.37,-66511.61l-0.62 -66509.74c0.62,-36726.42 29784.57,-66510.99 66511.61,-66510.99z"/>
   <g>
    <path class="fil1" d="M40979.58 55578.49c0,-4066.72 3297.9,-7364.61 7364.61,-7364.61l103104.6 0c4066.72,0 7364.61,3297.9 7364.61,7364.61 0,4066.72 -3297.9,7364.61 -7364.61,7364.61l-103104.6 0c-4066.72,0 -7364.61,-3297.9 -7364.61,-7364.61l0 0zm0 44187.69c0,-4066.72 3297.9,-7364.61 7364.61,-7364.61l103104.6 0c4066.72,0 7364.61,3297.9 7364.61,7364.61 0,4066.1 -3297.9,7363.99 -7364.61,7363.99l-103104.6 0.62c-4066.72,-0.62 -7364.61,-3298.52 -7364.61,-7364.61l0 0zm7364.61 36823.07c-4066.72,-0.62 -7364.61,3297.27 -7364.61,7363.99 0,4066.72 3297.9,7364.61 7364.61,7364.61l103104.6 0.62c4066.72,-0.62 7364.61,-3298.52 7364.61,-7365.24 0,-4066.72 -3297.9,-7364.61 -7364.61,-7364.61l-103104.6 0.62z"/>
   </g>
  </g>
 </g>
</svg>
