<?xml version="1.0" encoding="UTF-8"?>
<!DOCTYPE svg PUBLIC "-//W3C//DTD SVG 1.1//EN" "http://www.w3.org/Graphics/SVG/1.1/DTD/svg11.dtd">
<!-- Creator: CorelDRAW -->
<svg xmlns="http://www.w3.org/2000/svg" xml:space="preserve" width="7.2734mm" height="1.3918mm" version="1.1" style="shape-rendering:geometricPrecision; text-rendering:geometricPrecision; image-rendering:optimizeQuality; fill-rule:evenodd; clip-rule:evenodd"
viewBox="0 0 54.42 10.41"
 xmlns:xlink="http://www.w3.org/1999/xlink"
 xmlns:xodm="http://www.corel.com/coreldraw/odm/2003">
 <defs>
  <style type="text/css">
   <![CDATA[
    .fil0 {fill:#4ADE80}
    .fil2 {fill:#4ADE80;fill-rule:nonzero}
    .fil1 {fill:#E6EDF3;fill-rule:nonzero}
   ]]>
  </style>
 </defs>
 <g id="Layer_x0020_1">
  <metadata id="CorelCorpID_0Corel-Layer"/>
  <g id="_2253763137696">
   <path class="fil0" d="M9.42 6.91c0.04,-0.33 -0.22,-0.6 -0.53,-0.64 -0.37,-0.04 -0.64,0.21 -0.69,0.5 -0.05,0.34 0.23,0.61 0.54,0.64 0.36,0.04 0.64,-0.21 0.68,-0.51zm-3.22 -6.37c-0.31,0.04 -0.57,0.31 -0.52,0.66 0.05,0.28 0.34,0.53 0.7,0.48 0.31,-0.05 0.56,-0.31 0.51,-0.65 -0.05,-0.31 -0.36,-0.53 -0.69,-0.48zm0.99 7.8c0.04,0.29 0.32,0.54 0.68,0.5 0.31,-0.04 0.58,-0.3 0.53,-0.65 -0.04,-0.29 -0.32,-0.53 -0.68,-0.5 -0.31,0.03 -0.58,0.3 -0.53,0.64zm-2.76 -8.14c-0.32,0.03 -0.58,0.3 -0.54,0.64 0.04,0.29 0.32,0.54 0.68,0.51 0.31,-0.03 0.58,-0.3 0.54,-0.63 -0.03,-0.3 -0.31,-0.54 -0.67,-0.51zm3.77 3.34c0.02,0.3 0.31,0.55 0.66,0.52 0.32,-0.02 0.59,-0.3 0.56,-0.63 -0.03,-0.3 -0.31,-0.55 -0.67,-0.52 -0.32,0.03 -0.58,0.29 -0.55,0.62zm-0.49 -2.05c-0.31,0.04 -0.57,0.31 -0.52,0.65 0.04,0.29 0.33,0.54 0.69,0.49 0.31,-0.04 0.57,-0.31 0.52,-0.65 -0.05,-0.29 -0.33,-0.53 -0.69,-0.48zm0.84 3.71c0.02,0.3 0.31,0.56 0.65,0.53 0.32,-0.02 0.59,-0.28 0.57,-0.61 -0.02,-0.31 -0.3,-0.56 -0.66,-0.54 -0.33,0.02 -0.58,0.28 -0.57,0.61zm-1.82 4.1c0.03,-0.13 -0.02,-0.26 -0.09,-0.34 -0.06,-0.07 -0.16,-0.14 -0.29,-0.16 -0.27,-0.04 -0.49,0.13 -0.53,0.35 -0.06,0.27 0.15,0.48 0.37,0.51 0.29,0.05 0.49,-0.14 0.54,-0.35zm-2.68 0.3c0.02,0.21 0.23,0.4 0.49,0.37 0.23,-0.02 0.42,-0.22 0.4,-0.46 -0.02,-0.21 -0.23,-0.4 -0.5,-0.37 -0.23,0.02 -0.42,0.22 -0.39,0.47zm-1 -0.33c0.03,-0.2 -0.12,-0.35 -0.29,-0.38 -0.22,-0.04 -0.39,0.11 -0.42,0.27 -0.04,0.21 0.12,0.36 0.3,0.39 0.21,0.03 0.38,-0.11 0.41,-0.28zm-2.15 -0.97c0.02,0.13 0.15,0.26 0.32,0.23 0.37,-0.05 0.3,-0.58 -0.08,-0.53 -0.14,0.02 -0.27,0.15 -0.24,0.3zm-0.91 -1.45c0.01,0.09 0.09,0.16 0.19,0.15 0.09,-0.01 0.17,-0.08 0.16,-0.18 -0.02,-0.21 -0.37,-0.2 -0.35,0.03z"/>
   <path class="fil1" d="M13.28 7.79l0 -7.4 1.66 0 0 7.4 -1.66 0zm1.46 0l0 -1.46 3.1 0 0 1.46 -3.1 0z"/>
   <path class="fil2" d="M21.55 7.98c-0.49,0 -0.92,-0.08 -1.3,-0.23 -0.38,-0.15 -0.7,-0.36 -0.96,-0.62 -0.26,-0.26 -0.46,-0.57 -0.59,-0.91 -0.14,-0.34 -0.2,-0.7 -0.2,-1.08l0 -0.23c0,-0.39 0.07,-0.75 0.21,-1.1 0.14,-0.35 0.34,-0.65 0.61,-0.92 0.27,-0.26 0.59,-0.47 0.97,-0.62 0.38,-0.15 0.8,-0.23 1.27,-0.23 0.48,0 0.91,0.08 1.28,0.23 0.38,0.15 0.69,0.36 0.96,0.62 0.26,0.26 0.47,0.57 0.61,0.92 0.14,0.35 0.21,0.71 0.21,1.1l0 0.23c0,0.38 -0.07,0.74 -0.2,1.08 -0.13,0.34 -0.33,0.64 -0.59,0.91 -0.26,0.26 -0.58,0.47 -0.96,0.62 -0.38,0.15 -0.81,0.23 -1.31,0.23zm0 -1.37c0.32,0 0.58,-0.07 0.79,-0.2 0.21,-0.13 0.37,-0.32 0.48,-0.57 0.11,-0.24 0.17,-0.51 0.17,-0.81 0,-0.32 -0.06,-0.6 -0.17,-0.84 -0.11,-0.24 -0.28,-0.43 -0.49,-0.57 -0.21,-0.14 -0.47,-0.21 -0.78,-0.21 -0.3,0 -0.55,0.07 -0.77,0.21 -0.22,0.14 -0.38,0.33 -0.49,0.57 -0.11,0.24 -0.17,0.52 -0.17,0.84 0,0.3 0.05,0.57 0.16,0.81 0.11,0.24 0.27,0.43 0.49,0.57 0.22,0.14 0.48,0.2 0.78,0.2z"/>
   <path class="fil2" d="M29.1 7.79l0 -1.64 -0.27 0 0 -1.78c0,-0.28 -0.07,-0.5 -0.2,-0.64 -0.14,-0.14 -0.35,-0.21 -0.65,-0.21 -0.15,0 -0.34,0 -0.59,0.01 -0.24,0.01 -0.49,0.02 -0.75,0.03 -0.26,0.01 -0.49,0.03 -0.7,0.04l0 -1.37c0.16,-0.01 0.34,-0.03 0.55,-0.04 0.21,-0.01 0.43,-0.02 0.65,-0.03 0.22,-0.01 0.43,-0.01 0.63,-0.01 0.57,0 1.05,0.08 1.43,0.24 0.39,0.16 0.68,0.41 0.89,0.73 0.2,0.33 0.3,0.75 0.3,1.26l0 3.4 -1.29 0zm-1.77 0.14c-0.4,0 -0.75,-0.07 -1.05,-0.21 -0.3,-0.14 -0.54,-0.35 -0.7,-0.61 -0.17,-0.27 -0.25,-0.59 -0.25,-0.96 0,-0.41 0.1,-0.74 0.31,-1 0.21,-0.26 0.5,-0.45 0.88,-0.58 0.38,-0.12 0.81,-0.19 1.31,-0.19l1.19 0 0 0.9 -1.2 0c-0.28,0 -0.5,0.07 -0.65,0.21 -0.15,0.14 -0.23,0.33 -0.23,0.56 0,0.22 0.08,0.4 0.23,0.54 0.15,0.14 0.37,0.21 0.65,0.21 0.18,0 0.35,-0.03 0.49,-0.1 0.15,-0.06 0.27,-0.17 0.36,-0.33 0.09,-0.16 0.15,-0.37 0.16,-0.65l0.38 0.4c-0.03,0.39 -0.13,0.71 -0.28,0.97 -0.15,0.26 -0.36,0.47 -0.63,0.61 -0.27,0.14 -0.59,0.21 -0.98,0.21z"/>
   <path class="fil1" d="M34.05 7.97c-0.39,0 -0.75,-0.07 -1.07,-0.21 -0.32,-0.14 -0.6,-0.34 -0.84,-0.59 -0.24,-0.25 -0.42,-0.55 -0.54,-0.9 -0.12,-0.34 -0.19,-0.72 -0.19,-1.11l0 -0.23c0,-0.4 0.06,-0.77 0.18,-1.11 0.12,-0.34 0.29,-0.65 0.52,-0.91 0.23,-0.26 0.5,-0.46 0.82,-0.61 0.32,-0.15 0.67,-0.22 1.06,-0.22 0.45,0 0.83,0.1 1.16,0.29 0.32,0.19 0.58,0.48 0.76,0.85 0.18,0.37 0.28,0.84 0.3,1.38l-0.43 -0.4 0 -3.81 1.63 0 0 7.4 -1.29 0 0 -2.3 0.22 0c-0.02,0.53 -0.13,0.98 -0.33,1.35 -0.2,0.37 -0.47,0.65 -0.81,0.85 -0.34,0.19 -0.73,0.29 -1.17,0.29zm0.41 -1.36c0.25,0 0.48,-0.06 0.68,-0.17 0.21,-0.11 0.37,-0.27 0.5,-0.49 0.12,-0.22 0.19,-0.48 0.19,-0.78l0 -0.37c0,-0.3 -0.06,-0.55 -0.19,-0.75 -0.13,-0.2 -0.3,-0.36 -0.51,-0.47 -0.21,-0.11 -0.44,-0.16 -0.68,-0.16 -0.27,0 -0.51,0.07 -0.72,0.21 -0.21,0.14 -0.38,0.33 -0.5,0.57 -0.12,0.24 -0.18,0.52 -0.18,0.84 0,0.32 0.06,0.6 0.18,0.84 0.12,0.24 0.29,0.42 0.51,0.55 0.22,0.13 0.46,0.19 0.73,0.19z"/>
   <path class="fil1" d="M39.15 7.79l0 -5.55 1.62 0 0 5.55 -1.62 0zm-0.74 -4.36l0 -1.2 2.36 0 0 1.2 -2.36 0zm1.37 -1.74c-0.3,0 -0.53,-0.08 -0.67,-0.24 -0.15,-0.16 -0.22,-0.36 -0.22,-0.6 0,-0.25 0.07,-0.45 0.22,-0.61 0.15,-0.16 0.37,-0.24 0.67,-0.24 0.3,0 0.53,0.08 0.67,0.24 0.15,0.16 0.22,0.36 0.22,0.61 0,0.24 -0.07,0.44 -0.22,0.6 -0.15,0.16 -0.37,0.24 -0.67,0.24z"/>
   <path class="fil1" d="M42.27 7.79l0 -5.55 1.29 0 0 2.38 -0.09 0c0,-0.57 0.07,-1.04 0.22,-1.42 0.15,-0.38 0.37,-0.66 0.66,-0.85 0.3,-0.19 0.66,-0.28 1.08,-0.28l0.07 0c0.65,0 1.14,0.21 1.48,0.63 0.34,0.42 0.51,1.06 0.51,1.92l0 3.17 -1.62 0 0 -3.26c0,-0.3 -0.09,-0.54 -0.26,-0.73 -0.18,-0.19 -0.41,-0.28 -0.71,-0.28 -0.3,0 -0.55,0.1 -0.73,0.29 -0.19,0.19 -0.28,0.44 -0.28,0.75l0 3.23 -1.62 0z"/>
   <path class="fil1" d="M49.46 10l-0 -1.37c0.74,-0.02 2.02,0.09 2.64,-0.14 0.27,-0.1 0.47,-0.26 0.6,-0.46 0.13,-0.21 0.17,-0.47 0.19,-0.8l0.04 -0.56c0,-0.03 -0.02,0.05 -0.04,0.07 -0.18,0.35 -0.43,0.62 -0.74,0.81 -0.32,0.19 -0.7,0.28 -1.14,0.28 -0.38,0 -0.72,-0.07 -1.03,-0.21 -0.31,-0.14 -0.57,-0.33 -0.78,-0.58 -0.22,-0.25 -0.38,-0.54 -0.5,-0.88 -0.11,-0.33 -0.17,-0.7 -0.17,-1.09l0 -0.23c0,-0.39 0.06,-0.76 0.18,-1.09 0.12,-0.34 0.3,-0.63 0.53,-0.88 0.23,-0.25 0.5,-0.44 0.82,-0.58 0.32,-0.14 0.67,-0.21 1.05,-0.21 0.45,0 0.83,0.1 1.16,0.29 0.33,0.2 0.59,0.48 0.78,0.86 0.03,0.06 0.05,0.11 0.08,0.17l0 0 0 -1.17 1.29 0 0 4.89c0,0.68 -0.12,1.23 -0.36,1.65 -0.24,0.42 -0.61,0.73 -1.11,0.92 -1,0.4 -2.4,0.26 -3.49,0.29l0 0zm2.07 -3.54c0.25,0 0.48,-0.06 0.68,-0.17 0.2,-0.11 0.36,-0.27 0.48,-0.48 0.12,-0.21 0.18,-0.46 0.18,-0.76l0 -0.29c0,-0.29 -0.06,-0.54 -0.19,-0.73 -0.12,-0.2 -0.29,-0.35 -0.49,-0.46 -0.2,-0.1 -0.42,-0.16 -0.65,-0.16 -0.27,0 -0.51,0.06 -0.72,0.19 -0.21,0.13 -0.37,0.31 -0.49,0.54 -0.11,0.23 -0.17,0.5 -0.17,0.81 0,0.32 0.06,0.59 0.18,0.82 0.12,0.23 0.28,0.4 0.49,0.52 0.21,0.12 0.44,0.18 0.7,0.18z"/>
   <polygon class="fil1" points="13.7,10 13.3,8.53 13.48,8.53 13.79,9.73 13.8,9.73 14.12,8.53 14.32,8.53 14.63,9.73 14.64,9.73 14.95,8.53 15.13,8.53 14.73,10 14.55,10 14.22,8.83 14.21,8.83 13.89,10 "/>
   <path id="_1" class="fil1" d="M15.69 10.02c-0.11,0 -0.2,-0.02 -0.27,-0.07 -0.08,-0.05 -0.14,-0.11 -0.18,-0.2 -0.04,-0.08 -0.06,-0.18 -0.06,-0.3 0,-0.11 0.02,-0.21 0.06,-0.3 0.04,-0.09 0.1,-0.15 0.17,-0.2 0.07,-0.05 0.16,-0.07 0.26,-0.07 0.06,0 0.11,0.01 0.17,0.03 0.06,0.02 0.11,0.05 0.15,0.09 0.05,0.04 0.08,0.1 0.11,0.17 0.03,0.07 0.04,0.16 0.04,0.26l0 0.07 -0.85 0 0 -0.15 0.68 0c0,-0.06 -0.01,-0.12 -0.04,-0.17 -0.02,-0.05 -0.06,-0.09 -0.1,-0.12 -0.04,-0.03 -0.1,-0.04 -0.16,-0.04 -0.07,0 -0.12,0.02 -0.17,0.05 -0.05,0.03 -0.09,0.08 -0.11,0.13 -0.03,0.05 -0.04,0.11 -0.04,0.17l0 0.1c0,0.08 0.01,0.15 0.04,0.21 0.03,0.06 0.07,0.1 0.12,0.13 0.05,0.03 0.11,0.04 0.18,0.04 0.04,0 0.08,-0.01 0.12,-0.02 0.04,-0.01 0.07,-0.03 0.09,-0.06 0.03,-0.03 0.05,-0.06 0.06,-0.1l0.16 0.05c-0.02,0.06 -0.05,0.1 -0.09,0.15 -0.04,0.04 -0.09,0.07 -0.15,0.1 -0.06,0.02 -0.13,0.04 -0.2,0.04z"/>
   <path id="_2" class="fil1" d="M16.42 10l0 -1.47 0.17 0 0 0.54 0.01 0c0.01,-0.02 0.03,-0.04 0.05,-0.07 0.02,-0.03 0.05,-0.06 0.1,-0.08 0.04,-0.02 0.1,-0.04 0.17,-0.04 0.09,0 0.17,0.02 0.25,0.07 0.07,0.05 0.13,0.11 0.17,0.2 0.04,0.09 0.06,0.19 0.06,0.3 0,0.12 -0.02,0.22 -0.06,0.3 -0.04,0.09 -0.1,0.15 -0.17,0.2 -0.07,0.05 -0.15,0.07 -0.24,0.07 -0.07,0 -0.13,-0.01 -0.17,-0.04 -0.04,-0.02 -0.08,-0.05 -0.1,-0.08 -0.02,-0.03 -0.04,-0.06 -0.05,-0.08l-0.02 0 0 0.17 -0.16 0zm0.17 -0.55c0,0.08 0.01,0.16 0.04,0.22 0.02,0.06 0.06,0.11 0.11,0.15 0.05,0.04 0.1,0.05 0.17,0.05 0.07,0 0.13,-0.02 0.18,-0.06 0.05,-0.04 0.08,-0.09 0.11,-0.15 0.02,-0.06 0.04,-0.14 0.04,-0.21 0,-0.08 -0.01,-0.15 -0.04,-0.21 -0.02,-0.06 -0.06,-0.11 -0.11,-0.15 -0.05,-0.04 -0.11,-0.05 -0.18,-0.05 -0.07,0 -0.13,0.02 -0.17,0.05 -0.05,0.03 -0.08,0.08 -0.11,0.14 -0.02,0.06 -0.04,0.13 -0.04,0.22z"/>
   <path id="_3" class="fil1" d="M18.7 10l-0.45 0 0 -1.47 0.47 0c0.14,0 0.26,0.03 0.37,0.09 0.1,0.06 0.18,0.14 0.23,0.25 0.05,0.11 0.08,0.24 0.08,0.39 0,0.15 -0.03,0.28 -0.08,0.39 -0.05,0.11 -0.13,0.19 -0.24,0.25 -0.1,0.06 -0.23,0.09 -0.38,0.09zm-0.28 -0.16l0.26 0c0.12,0 0.22,-0.02 0.3,-0.07 0.08,-0.05 0.14,-0.11 0.18,-0.2 0.04,-0.09 0.06,-0.19 0.06,-0.31 0,-0.12 -0.02,-0.22 -0.06,-0.31 -0.04,-0.09 -0.1,-0.15 -0.17,-0.2 -0.08,-0.05 -0.17,-0.07 -0.29,-0.07l-0.28 0 0 1.15z"/>
   <path id="_4" class="fil1" d="M20.13 10.02c-0.11,0 -0.2,-0.02 -0.27,-0.07 -0.08,-0.05 -0.14,-0.11 -0.18,-0.2 -0.04,-0.08 -0.06,-0.18 -0.06,-0.3 0,-0.11 0.02,-0.21 0.06,-0.3 0.04,-0.09 0.1,-0.15 0.17,-0.2 0.07,-0.05 0.16,-0.07 0.26,-0.07 0.06,0 0.11,0.01 0.17,0.03 0.06,0.02 0.11,0.05 0.15,0.09 0.05,0.04 0.08,0.1 0.11,0.17 0.03,0.07 0.04,0.16 0.04,0.26l0 0.07 -0.85 0 0 -0.15 0.68 0c0,-0.06 -0.01,-0.12 -0.04,-0.17 -0.02,-0.05 -0.06,-0.09 -0.1,-0.12 -0.04,-0.03 -0.1,-0.04 -0.16,-0.04 -0.07,0 -0.12,0.02 -0.17,0.05 -0.05,0.03 -0.09,0.08 -0.11,0.13 -0.03,0.05 -0.04,0.11 -0.04,0.17l0 0.1c0,0.08 0.01,0.15 0.04,0.21 0.03,0.06 0.07,0.1 0.12,0.13 0.05,0.03 0.11,0.04 0.18,0.04 0.04,0 0.08,-0.01 0.12,-0.02 0.04,-0.01 0.07,-0.03 0.09,-0.06 0.03,-0.03 0.05,-0.06 0.06,-0.1l0.16 0.05c-0.02,0.06 -0.05,0.1 -0.09,0.15 -0.04,0.04 -0.09,0.07 -0.15,0.1 -0.06,0.02 -0.13,0.04 -0.2,0.04z"/>
   <polygon id="_5" class="fil1" points="21.71,8.9 21.3,10 21.13,10 20.72,8.9 20.91,8.9 21.21,9.78 21.22,9.78 21.53,8.9 "/>
   <path id="_6" class="fil1" d="M22.36 10.02c-0.11,0 -0.2,-0.02 -0.27,-0.07 -0.08,-0.05 -0.14,-0.11 -0.18,-0.2 -0.04,-0.08 -0.06,-0.18 -0.06,-0.3 0,-0.11 0.02,-0.21 0.06,-0.3 0.04,-0.09 0.1,-0.15 0.17,-0.2 0.07,-0.05 0.16,-0.07 0.26,-0.07 0.06,0 0.11,0.01 0.17,0.03 0.06,0.02 0.11,0.05 0.15,0.09 0.05,0.04 0.08,0.1 0.11,0.17 0.03,0.07 0.04,0.16 0.04,0.26l0 0.07 -0.85 0 0 -0.15 0.68 0c0,-0.06 -0.01,-0.12 -0.04,-0.17 -0.02,-0.05 -0.06,-0.09 -0.1,-0.12 -0.04,-0.03 -0.1,-0.04 -0.16,-0.04 -0.07,0 -0.13,0.02 -0.17,0.05 -0.05,0.03 -0.09,0.08 -0.11,0.13 -0.03,0.05 -0.04,0.11 -0.04,0.17l0 0.1c0,0.08 0.01,0.15 0.04,0.21 0.03,0.06 0.07,0.1 0.12,0.13 0.05,0.03 0.11,0.04 0.18,0.04 0.04,0 0.08,-0.01 0.12,-0.02 0.04,-0.01 0.07,-0.03 0.09,-0.06 0.03,-0.03 0.05,-0.06 0.06,-0.1l0.16 0.05c-0.02,0.06 -0.05,0.1 -0.09,0.15 -0.04,0.04 -0.09,0.07 -0.15,0.1 -0.06,0.02 -0.13,0.04 -0.2,0.04z"/>
   <polygon id="_7" class="fil1" points="23.24,8.53 23.24,10 23.07,10 23.07,8.53 "/>
   <path id="_8" class="fil1" d="M23.99 10.02c-0.1,0 -0.19,-0.02 -0.26,-0.07 -0.07,-0.05 -0.13,-0.11 -0.18,-0.2 -0.04,-0.09 -0.06,-0.18 -0.06,-0.3 0,-0.11 0.02,-0.21 0.06,-0.3 0.04,-0.09 0.1,-0.15 0.18,-0.2 0.07,-0.05 0.16,-0.07 0.26,-0.07 0.1,0 0.19,0.02 0.26,0.07 0.08,0.05 0.13,0.11 0.18,0.2 0.04,0.09 0.06,0.19 0.06,0.3 0,0.11 -0.02,0.21 -0.06,0.3 -0.04,0.08 -0.1,0.15 -0.18,0.2 -0.07,0.05 -0.16,0.07 -0.26,0.07zm0 -0.15c0.07,0 0.14,-0.02 0.19,-0.06 0.05,-0.04 0.08,-0.09 0.11,-0.15 0.02,-0.06 0.04,-0.13 0.04,-0.21 0,-0.07 -0.01,-0.14 -0.04,-0.21 -0.02,-0.06 -0.06,-0.11 -0.11,-0.15 -0.05,-0.04 -0.11,-0.06 -0.19,-0.06 -0.08,0 -0.14,0.02 -0.19,0.06 -0.05,0.04 -0.09,0.09 -0.11,0.15 -0.02,0.06 -0.04,0.13 -0.04,0.21 0,0.07 0.01,0.14 0.04,0.21 0.02,0.06 0.06,0.11 0.11,0.15 0.05,0.04 0.11,0.06 0.19,0.06z"/>
   <path id="_9" class="fil1" d="M24.75 10.41l0 -1.51 0.16 0 0 0.18 0.02 0c0.01,-0.02 0.03,-0.04 0.05,-0.07 0.02,-0.03 0.05,-0.06 0.1,-0.08 0.04,-0.02 0.1,-0.04 0.17,-0.04 0.09,0 0.17,0.02 0.25,0.07 0.07,0.05 0.13,0.11 0.17,0.2 0.04,0.09 0.06,0.19 0.06,0.3 0,0.12 -0.02,0.22 -0.06,0.3 -0.04,0.09 -0.09,0.15 -0.16,0.2 -0.07,0.05 -0.15,0.07 -0.24,0.07 -0.07,0 -0.13,-0.01 -0.17,-0.04 -0.04,-0.02 -0.07,-0.05 -0.1,-0.08 -0.02,-0.03 -0.04,-0.06 -0.05,-0.08l-0.01 0 0 0.58 -0.17 0zm0.17 -0.96c0,0.08 0.01,0.16 0.04,0.22 0.02,0.06 0.06,0.11 0.11,0.15 0.05,0.04 0.1,0.05 0.17,0.05 0.07,0 0.13,-0.02 0.18,-0.06 0.05,-0.04 0.08,-0.09 0.11,-0.15 0.02,-0.06 0.04,-0.13 0.04,-0.21 0,-0.08 -0.01,-0.15 -0.04,-0.21 -0.02,-0.06 -0.06,-0.11 -0.11,-0.15 -0.05,-0.04 -0.11,-0.05 -0.18,-0.05 -0.07,0 -0.13,0.02 -0.17,0.05 -0.05,0.03 -0.08,0.08 -0.11,0.14 -0.02,0.06 -0.04,0.13 -0.04,0.22z"/>
   <path id="_10" class="fil1" d="M25.98 10l0 -1.1 0.16 0 0 0.17 0.01 0c0.02,-0.06 0.06,-0.1 0.11,-0.14 0.05,-0.03 0.11,-0.05 0.18,-0.05 0.07,0 0.13,0.02 0.18,0.05 0.05,0.03 0.09,0.08 0.11,0.14l0.01 0c0.03,-0.06 0.07,-0.1 0.13,-0.14 0.06,-0.03 0.12,-0.05 0.2,-0.05 0.1,0 0.18,0.03 0.24,0.09 0.06,0.06 0.09,0.16 0.09,0.29l0 0.74 -0.17 0 0 -0.74c0,-0.08 -0.02,-0.14 -0.07,-0.17 -0.04,-0.04 -0.1,-0.05 -0.16,-0.05 -0.08,0 -0.14,0.02 -0.18,0.07 -0.04,0.05 -0.06,0.11 -0.06,0.18l0 0.72 -0.17 0 0 -0.75c0,-0.06 -0.02,-0.11 -0.06,-0.15 -0.04,-0.04 -0.09,-0.06 -0.16,-0.06 -0.04,0 -0.09,0.01 -0.12,0.04 -0.04,0.02 -0.07,0.06 -0.09,0.1 -0.02,0.04 -0.03,0.09 -0.03,0.14l0 0.69 -0.17 0z"/>
   <path id="_11" class="fil1" d="M28.2 10.02c-0.11,0 -0.2,-0.02 -0.27,-0.07 -0.08,-0.05 -0.14,-0.11 -0.18,-0.2 -0.04,-0.08 -0.06,-0.18 -0.06,-0.3 0,-0.11 0.02,-0.21 0.06,-0.3 0.04,-0.09 0.1,-0.15 0.17,-0.2 0.07,-0.05 0.16,-0.07 0.26,-0.07 0.06,0 0.11,0.01 0.17,0.03 0.06,0.02 0.11,0.05 0.15,0.09 0.05,0.04 0.08,0.1 0.11,0.17 0.03,0.07 0.04,0.16 0.04,0.26l0 0.07 -0.85 0 0 -0.15 0.68 0c0,-0.06 -0.01,-0.12 -0.04,-0.17 -0.02,-0.05 -0.06,-0.09 -0.1,-0.12 -0.04,-0.03 -0.1,-0.04 -0.16,-0.04 -0.07,0 -0.13,0.02 -0.17,0.05 -0.05,0.03 -0.09,0.08 -0.11,0.13 -0.03,0.05 -0.04,0.11 -0.04,0.17l0 0.1c0,0.08 0.01,0.15 0.04,0.21 0.03,0.06 0.07,0.1 0.12,0.13 0.05,0.03 0.11,0.04 0.18,0.04 0.04,0 0.08,-0.01 0.12,-0.02 0.04,-0.01 0.07,-0.03 0.09,-0.06 0.03,-0.03 0.05,-0.06 0.06,-0.1l0.16 0.05c-0.02,0.06 -0.05,0.1 -0.09,0.15 -0.04,0.04 -0.09,0.07 -0.15,0.1 -0.06,0.02 -0.13,0.04 -0.2,0.04z"/>
   <path id="_12" class="fil1" d="M29.08 9.34l0 0.66 -0.17 0 0 -1.1 0.16 0 0 0.17 0.01 0c0.03,-0.06 0.07,-0.1 0.12,-0.13 0.05,-0.03 0.12,-0.05 0.2,-0.05 0.07,0 0.14,0.01 0.2,0.05 0.06,0.03 0.1,0.08 0.13,0.14 0.03,0.06 0.05,0.14 0.05,0.23l0 0.7 -0.17 0 0 -0.69c0,-0.09 -0.02,-0.15 -0.07,-0.2 -0.04,-0.05 -0.11,-0.07 -0.18,-0.07 -0.05,0 -0.1,0.01 -0.14,0.04 -0.04,0.02 -0.08,0.06 -0.1,0.1 -0.02,0.04 -0.04,0.1 -0.04,0.16z"/>
   <path id="_13" class="fil1" d="M30.57 8.9l0 0.14 -0.57 0 0 -0.14 0.57 0zm-0.4 -0.26l0.17 0 0 1.05c0,0.05 0.01,0.08 0.02,0.11 0.01,0.02 0.03,0.04 0.05,0.05 0.02,0.01 0.05,0.01 0.07,0.01 0.02,0 0.03,-0 0.05,-0 0.01,-0 0.02,-0 0.03,-0.01l0.03 0.15c-0.01,0 -0.03,0.01 -0.05,0.01 -0.02,0 -0.05,0.01 -0.08,0.01 -0.05,0 -0.1,-0.01 -0.14,-0.03 -0.05,-0.02 -0.08,-0.05 -0.11,-0.09 -0.03,-0.04 -0.04,-0.1 -0.04,-0.16l0 -1.09z"/>
   <path id="_14" class="fil1" d="M31.88 8.9l0 0.14 -0.59 0 0 -0.14 0.59 0zm-0.42 1.1l0 -1.25c0,-0.06 0.01,-0.12 0.04,-0.16 0.03,-0.04 0.07,-0.07 0.12,-0.1 0.05,-0.02 0.1,-0.03 0.15,-0.03 0.04,0 0.08,0 0.1,0.01 0.03,0.01 0.05,0.01 0.06,0.02l-0.05 0.15c-0.01,-0 -0.02,-0.01 -0.04,-0.01 -0.01,-0 -0.03,-0.01 -0.06,-0.01 -0.06,0 -0.1,0.01 -0.12,0.04 -0.02,0.03 -0.04,0.07 -0.04,0.12l0 1.21 -0.17 0z"/>
   <path id="_15" class="fil1" d="M32.52 10.02c-0.1,0 -0.19,-0.02 -0.26,-0.07 -0.07,-0.05 -0.13,-0.11 -0.18,-0.2 -0.04,-0.09 -0.06,-0.18 -0.06,-0.3 0,-0.11 0.02,-0.21 0.06,-0.3 0.04,-0.09 0.1,-0.15 0.18,-0.2 0.07,-0.05 0.16,-0.07 0.26,-0.07 0.1,0 0.19,0.02 0.26,0.07 0.07,0.05 0.13,0.11 0.18,0.2 0.04,0.09 0.06,0.19 0.06,0.3 0,0.11 -0.02,0.21 -0.06,0.3 -0.04,0.08 -0.1,0.15 -0.18,0.2 -0.07,0.05 -0.16,0.07 -0.26,0.07zm0 -0.15c0.08,0 0.14,-0.02 0.19,-0.06 0.05,-0.04 0.08,-0.09 0.11,-0.15 0.02,-0.06 0.04,-0.13 0.04,-0.21 0,-0.07 -0.01,-0.14 -0.04,-0.21 -0.02,-0.06 -0.06,-0.11 -0.11,-0.15 -0.05,-0.04 -0.11,-0.06 -0.19,-0.06 -0.08,0 -0.14,0.02 -0.19,0.06 -0.05,0.04 -0.08,0.09 -0.11,0.15 -0.02,0.06 -0.03,0.13 -0.03,0.21 0,0.07 0.01,0.14 0.03,0.21 0.02,0.06 0.06,0.11 0.11,0.15 0.05,0.04 0.11,0.06 0.19,0.06z"/>
   <path id="_16" class="fil1" d="M33.28 10l0 -1.1 0.16 0 0 0.17 0.01 0c0.02,-0.05 0.06,-0.1 0.11,-0.13 0.05,-0.03 0.11,-0.05 0.18,-0.05 0.01,0 0.03,0 0.05,0 0.02,0 0.03,0 0.04,0l0 0.17c-0.01,-0 -0.02,-0 -0.04,-0.01 -0.02,-0 -0.04,-0 -0.06,-0 -0.05,0 -0.1,0.01 -0.14,0.03 -0.04,0.02 -0.07,0.05 -0.1,0.09 -0.02,0.04 -0.04,0.08 -0.04,0.13l0 0.7 -0.17 0z"/>
   <path id="_17" class="fil1" d="M35.42 8.9c-0.01,-0.07 -0.04,-0.13 -0.1,-0.17 -0.06,-0.04 -0.14,-0.06 -0.22,-0.06 -0.07,0 -0.12,0.01 -0.17,0.03 -0.05,0.02 -0.09,0.05 -0.11,0.09 -0.03,0.04 -0.04,0.08 -0.04,0.12 0,0.04 0.01,0.07 0.03,0.1 0.02,0.03 0.04,0.05 0.07,0.07 0.03,0.02 0.06,0.03 0.09,0.04 0.03,0.01 0.06,0.02 0.09,0.03l0.15 0.04c0.04,0.01 0.08,0.02 0.13,0.04 0.05,0.02 0.09,0.04 0.14,0.07 0.04,0.03 0.08,0.07 0.11,0.12 0.03,0.05 0.04,0.11 0.04,0.17 0,0.08 -0.02,0.15 -0.06,0.21 -0.04,0.06 -0.1,0.11 -0.18,0.15 -0.08,0.04 -0.18,0.06 -0.29,0.06 -0.1,0 -0.2,-0.02 -0.27,-0.05 -0.08,-0.03 -0.14,-0.08 -0.18,-0.14 -0.04,-0.06 -0.07,-0.13 -0.07,-0.21l0.18 0c0.01,0.06 0.02,0.1 0.06,0.14 0.03,0.04 0.07,0.06 0.12,0.08 0.05,0.02 0.1,0.03 0.16,0.03 0.07,0 0.13,-0.01 0.18,-0.03 0.05,-0.02 0.1,-0.05 0.13,-0.09 0.03,-0.04 0.05,-0.09 0.05,-0.14 0,-0.05 -0.01,-0.09 -0.04,-0.12 -0.03,-0.03 -0.06,-0.06 -0.11,-0.07 -0.04,-0.02 -0.09,-0.04 -0.14,-0.05l-0.18 -0.05c-0.12,-0.03 -0.21,-0.08 -0.27,-0.14 -0.07,-0.06 -0.1,-0.14 -0.1,-0.24 0,-0.08 0.02,-0.15 0.07,-0.22 0.04,-0.06 0.1,-0.11 0.18,-0.14 0.08,-0.03 0.16,-0.05 0.25,-0.05 0.09,0 0.18,0.02 0.25,0.05 0.07,0.03 0.13,0.08 0.18,0.14 0.04,0.06 0.07,0.12 0.07,0.2l-0.17 0z"/>
   <path id="_18" class="fil1" d="M35.88 10l0 -1.1 0.16 0 0 0.17 0.01 0c0.02,-0.06 0.06,-0.1 0.11,-0.14 0.05,-0.03 0.11,-0.05 0.18,-0.05 0.07,0 0.13,0.02 0.18,0.05 0.05,0.03 0.09,0.08 0.11,0.14l0.01 0c0.03,-0.06 0.07,-0.1 0.13,-0.14 0.06,-0.03 0.12,-0.05 0.2,-0.05 0.1,0 0.18,0.03 0.24,0.09 0.06,0.06 0.09,0.16 0.09,0.29l0 0.74 -0.17 0 0 -0.74c0,-0.08 -0.02,-0.14 -0.07,-0.17 -0.04,-0.04 -0.1,-0.05 -0.16,-0.05 -0.08,0 -0.14,0.02 -0.18,0.07 -0.04,0.05 -0.06,0.11 -0.06,0.18l0 0.72 -0.17 0 0 -0.75c0,-0.06 -0.02,-0.11 -0.06,-0.15 -0.04,-0.04 -0.09,-0.06 -0.16,-0.06 -0.04,0 -0.09,0.01 -0.12,0.04 -0.04,0.02 -0.07,0.06 -0.09,0.1 -0.02,0.04 -0.03,0.09 -0.03,0.14l0 0.69 -0.17 0z"/>
   <path id="_19" class="fil1" d="M37.96 10.03c-0.07,0 -0.13,-0.01 -0.19,-0.04 -0.06,-0.03 -0.1,-0.07 -0.14,-0.12 -0.03,-0.05 -0.05,-0.11 -0.05,-0.18 0,-0.06 0.01,-0.11 0.04,-0.15 0.02,-0.04 0.06,-0.07 0.1,-0.09 0.04,-0.02 0.09,-0.04 0.14,-0.05 0.05,-0.01 0.1,-0.02 0.15,-0.03 0.07,-0.01 0.12,-0.01 0.16,-0.02 0.04,-0 0.07,-0.01 0.09,-0.02 0.02,-0.01 0.03,-0.03 0.03,-0.06l0 -0.01c0,-0.07 -0.02,-0.13 -0.06,-0.16 -0.04,-0.04 -0.1,-0.06 -0.17,-0.06 -0.08,0 -0.14,0.02 -0.19,0.05 -0.05,0.04 -0.08,0.07 -0.1,0.11l-0.16 -0.06c0.03,-0.07 0.07,-0.12 0.12,-0.16 0.05,-0.04 0.1,-0.06 0.16,-0.08 0.06,-0.01 0.11,-0.02 0.17,-0.02 0.04,0 0.08,0 0.12,0.01 0.05,0.01 0.09,0.03 0.13,0.05 0.04,0.03 0.08,0.07 0.11,0.12 0.03,0.05 0.04,0.12 0.04,0.21l0 0.72 -0.17 0 0 -0.15 -0.01 0c-0.01,0.02 -0.03,0.05 -0.06,0.08 -0.03,0.03 -0.06,0.05 -0.11,0.07 -0.04,0.02 -0.1,0.03 -0.16,0.03zm0.03 -0.15c0.07,0 0.12,-0.01 0.17,-0.04 0.05,-0.03 0.08,-0.06 0.1,-0.1 0.02,-0.04 0.04,-0.09 0.04,-0.13l0 -0.15c-0.01,0.01 -0.02,0.02 -0.05,0.02 -0.02,0.01 -0.05,0.01 -0.08,0.02 -0.03,0.01 -0.06,0.01 -0.09,0.01 -0.03,0 -0.05,0.01 -0.07,0.01 -0.04,0.01 -0.08,0.01 -0.12,0.03 -0.04,0.01 -0.07,0.03 -0.09,0.06 -0.02,0.02 -0.03,0.06 -0.03,0.1 0,0.06 0.02,0.1 0.07,0.13 0.04,0.03 0.1,0.04 0.17,0.04z"/>
   <polygon id="_20" class="fil1" points="38.94,8.53 38.94,10 38.77,10 38.77,8.53 "/>
   <polygon id="_21" class="fil1" points="39.42,8.53 39.42,10 39.25,10 39.25,8.53 "/>
   <path id="_22" class="fil1" d="M40.32 10l0 -1.47 0.51 0c0.1,0 0.19,0.02 0.25,0.05 0.07,0.04 0.12,0.08 0.15,0.14 0.03,0.06 0.05,0.12 0.05,0.2 0,0.06 -0.01,0.12 -0.03,0.16 -0.02,0.04 -0.05,0.07 -0.09,0.1 -0.04,0.02 -0.07,0.04 -0.12,0.05l0 0.01c0.04,0 0.09,0.02 0.14,0.05 0.05,0.03 0.08,0.07 0.11,0.12 0.03,0.05 0.05,0.12 0.05,0.2 0,0.07 -0.02,0.14 -0.05,0.2 -0.03,0.06 -0.09,0.11 -0.16,0.14 -0.07,0.03 -0.17,0.05 -0.28,0.05l-0.53 0 0 0zm0.18 -0.16l0.35 0c0.12,0 0.2,-0.02 0.25,-0.07 0.05,-0.04 0.07,-0.1 0.07,-0.16 0,-0.05 -0.01,-0.1 -0.04,-0.14 -0.03,-0.04 -0.06,-0.08 -0.11,-0.1 -0.05,-0.03 -0.1,-0.04 -0.17,-0.04l-0.36 0 0 0.51zm0 -0.66l0.33 0c0.05,0 0.1,-0.01 0.15,-0.03 0.04,-0.02 0.08,-0.05 0.1,-0.09 0.03,-0.04 0.04,-0.08 0.04,-0.13 0,-0.06 -0.02,-0.12 -0.07,-0.16 -0.04,-0.04 -0.12,-0.07 -0.21,-0.07l-0.34 0 0 0.49z"/>
   <path id="_23" class="fil1" d="M42.3 9.55l0 -0.65 0.17 0 0 1.1 -0.17 0 0 -0.19 -0.01 0c-0.03,0.06 -0.07,0.1 -0.12,0.14 -0.05,0.04 -0.12,0.06 -0.21,0.06 -0.07,0 -0.13,-0.01 -0.18,-0.05 -0.05,-0.03 -0.1,-0.08 -0.13,-0.14 -0.03,-0.06 -0.05,-0.14 -0.05,-0.23l0 -0.7 0.17 0 0 0.69c0,0.08 0.02,0.14 0.07,0.19 0.05,0.05 0.1,0.07 0.17,0.07 0.04,0 0.08,-0.01 0.13,-0.03 0.04,-0.02 0.08,-0.05 0.11,-0.1 0.03,-0.04 0.04,-0.1 0.04,-0.17z"/>
   <path id="_24" class="fil1" d="M43.56 9.15l-0.15 0.04c-0.01,-0.03 -0.02,-0.05 -0.04,-0.07 -0.02,-0.02 -0.04,-0.04 -0.07,-0.06 -0.03,-0.02 -0.07,-0.02 -0.12,-0.02 -0.07,0 -0.12,0.02 -0.17,0.05 -0.04,0.03 -0.07,0.07 -0.07,0.12 0,0.04 0.02,0.07 0.05,0.1 0.03,0.02 0.08,0.04 0.14,0.06l0.16 0.04c0.1,0.02 0.17,0.06 0.22,0.11 0.05,0.05 0.07,0.11 0.07,0.19 0,0.06 -0.02,0.12 -0.05,0.17 -0.04,0.05 -0.09,0.09 -0.15,0.12 -0.06,0.03 -0.14,0.04 -0.22,0.04 -0.11,0 -0.21,-0.02 -0.28,-0.07 -0.07,-0.05 -0.12,-0.12 -0.14,-0.21l0.16 -0.04c0.01,0.06 0.04,0.1 0.09,0.13 0.04,0.03 0.1,0.04 0.17,0.04 0.08,0 0.14,-0.02 0.19,-0.05 0.05,-0.03 0.07,-0.07 0.07,-0.12 0,-0.04 -0.01,-0.07 -0.04,-0.1 -0.03,-0.03 -0.07,-0.05 -0.12,-0.06l-0.18 -0.04c-0.1,-0.02 -0.18,-0.06 -0.22,-0.11 -0.05,-0.05 -0.07,-0.11 -0.07,-0.19 0,-0.06 0.02,-0.12 0.05,-0.16 0.04,-0.05 0.08,-0.09 0.14,-0.11 0.06,-0.03 0.13,-0.04 0.21,-0.04 0.11,0 0.2,0.02 0.26,0.07 0.06,0.05 0.11,0.11 0.13,0.19z"/>
   <path id="_25" class="fil1" d="M43.84 10l0 -1.1 0.17 0 0 1.1 -0.17 0zm0.09 -1.28c-0.03,0 -0.06,-0.01 -0.09,-0.03 -0.02,-0.02 -0.04,-0.05 -0.04,-0.08 0,-0.03 0.01,-0.06 0.04,-0.08 0.02,-0.02 0.05,-0.03 0.09,-0.03 0.03,0 0.06,0.01 0.08,0.03 0.02,0.02 0.04,0.05 0.04,0.08 0,0.03 -0.01,0.06 -0.04,0.08 -0.02,0.02 -0.05,0.03 -0.08,0.03z"/>
   <path id="_26" class="fil1" d="M44.49 9.34l0 0.66 -0.17 0 0 -1.1 0.16 0 0 0.17 0.01 0c0.03,-0.06 0.07,-0.1 0.12,-0.13 0.05,-0.03 0.12,-0.05 0.2,-0.05 0.07,0 0.14,0.01 0.2,0.05 0.06,0.03 0.1,0.08 0.13,0.14 0.03,0.06 0.05,0.14 0.05,0.23l0 0.7 -0.17 0 0 -0.69c0,-0.09 -0.02,-0.15 -0.07,-0.2 -0.04,-0.05 -0.11,-0.07 -0.18,-0.07 -0.05,0 -0.1,0.01 -0.14,0.04 -0.04,0.02 -0.08,0.06 -0.1,0.1 -0.02,0.04 -0.04,0.1 -0.04,0.16z"/>
   <path id="_27" class="fil1" d="M45.96 10.02c-0.11,0 -0.2,-0.02 -0.27,-0.07 -0.08,-0.05 -0.14,-0.11 -0.18,-0.2 -0.04,-0.08 -0.06,-0.18 -0.06,-0.3 0,-0.11 0.02,-0.21 0.06,-0.3 0.04,-0.09 0.1,-0.15 0.17,-0.2 0.07,-0.05 0.16,-0.07 0.26,-0.07 0.06,0 0.11,0.01 0.17,0.03 0.06,0.02 0.11,0.05 0.15,0.09 0.05,0.04 0.08,0.1 0.11,0.17 0.03,0.07 0.04,0.16 0.04,0.26l0 0.07 -0.85 0 0 -0.15 0.68 0c0,-0.06 -0.01,-0.12 -0.04,-0.17 -0.02,-0.05 -0.06,-0.09 -0.1,-0.12 -0.04,-0.03 -0.1,-0.04 -0.16,-0.04 -0.07,0 -0.13,0.02 -0.17,0.05 -0.05,0.03 -0.09,0.08 -0.11,0.13 -0.03,0.05 -0.04,0.11 -0.04,0.17l0 0.1c0,0.08 0.01,0.15 0.04,0.21 0.03,0.06 0.07,0.1 0.12,0.13 0.05,0.03 0.11,0.04 0.18,0.04 0.04,0 0.08,-0.01 0.12,-0.02 0.04,-0.01 0.07,-0.03 0.09,-0.06 0.03,-0.03 0.05,-0.06 0.06,-0.1l0.16 0.05c-0.02,0.06 -0.05,0.1 -0.09,0.15 -0.04,0.04 -0.09,0.07 -0.15,0.1 -0.06,0.02 -0.13,0.04 -0.2,0.04z"/>
   <path id="_28" class="fil1" d="M47.45 9.15l-0.15 0.04c-0.01,-0.03 -0.02,-0.05 -0.04,-0.07 -0.02,-0.02 -0.04,-0.04 -0.08,-0.06 -0.03,-0.02 -0.07,-0.02 -0.12,-0.02 -0.07,0 -0.12,0.02 -0.17,0.05 -0.04,0.03 -0.07,0.07 -0.07,0.12 0,0.04 0.02,0.07 0.05,0.1 0.03,0.02 0.08,0.04 0.14,0.06l0.16 0.04c0.1,0.02 0.17,0.06 0.22,0.11 0.05,0.05 0.07,0.11 0.07,0.19 0,0.06 -0.02,0.12 -0.05,0.17 -0.04,0.05 -0.09,0.09 -0.15,0.12 -0.07,0.03 -0.14,0.04 -0.23,0.04 -0.11,0 -0.21,-0.02 -0.28,-0.07 -0.07,-0.05 -0.12,-0.12 -0.14,-0.21l0.16 -0.04c0.02,0.06 0.04,0.1 0.09,0.13 0.04,0.03 0.1,0.04 0.17,0.04 0.08,0 0.14,-0.02 0.19,-0.05 0.05,-0.03 0.07,-0.07 0.07,-0.12 0,-0.04 -0.01,-0.07 -0.04,-0.1 -0.03,-0.03 -0.07,-0.05 -0.12,-0.06l-0.18 -0.04c-0.1,-0.02 -0.17,-0.06 -0.22,-0.11 -0.05,-0.05 -0.07,-0.11 -0.07,-0.19 0,-0.06 0.02,-0.12 0.05,-0.16 0.04,-0.05 0.08,-0.09 0.14,-0.11 0.06,-0.03 0.13,-0.04 0.21,-0.04 0.11,0 0.19,0.02 0.26,0.07 0.06,0.05 0.11,0.11 0.13,0.19z"/>
   <path id="_29" class="fil1" d="M48.51 9.15l-0.15 0.04c-0.01,-0.03 -0.02,-0.05 -0.04,-0.07 -0.02,-0.02 -0.04,-0.04 -0.07,-0.06 -0.03,-0.02 -0.07,-0.02 -0.12,-0.02 -0.07,0 -0.12,0.02 -0.17,0.05 -0.04,0.03 -0.07,0.07 -0.07,0.12 0,0.04 0.02,0.07 0.05,0.1 0.03,0.02 0.08,0.04 0.14,0.06l0.16 0.04c0.1,0.02 0.17,0.06 0.22,0.11 0.05,0.05 0.07,0.11 0.07,0.19 0,0.06 -0.02,0.12 -0.05,0.17 -0.04,0.05 -0.09,0.09 -0.15,0.12 -0.06,0.03 -0.14,0.04 -0.22,0.04 -0.11,0 -0.21,-0.02 -0.28,-0.07 -0.07,-0.05 -0.12,-0.12 -0.14,-0.21l0.16 -0.04c0.01,0.06 0.04,0.1 0.09,0.13 0.04,0.03 0.1,0.04 0.17,0.04 0.08,0 0.14,-0.02 0.19,-0.05 0.05,-0.03 0.07,-0.07 0.07,-0.12 0,-0.04 -0.01,-0.07 -0.04,-0.1 -0.03,-0.03 -0.07,-0.05 -0.12,-0.06l-0.18 -0.04c-0.1,-0.02 -0.18,-0.06 -0.22,-0.11 -0.05,-0.05 -0.07,-0.11 -0.07,-0.19 0,-0.06 0.02,-0.12 0.05,-0.16 0.04,-0.05 0.08,-0.09 0.14,-0.11 0.06,-0.03 0.13,-0.04 0.21,-0.04 0.11,0 0.19,0.02 0.26,0.07 0.06,0.05 0.11,0.11 0.13,0.19z"/>
  </g>
 </g>
</svg>
