<?xml version="1.0" encoding="UTF-8"?>
<!DOCTYPE svg PUBLIC "-//W3C//DTD SVG 1.1//EN" "http://www.w3.org/Graphics/SVG/1.1/DTD/svg11.dtd">
<!-- Creator: CorelDRAW -->
<svg xmlns="http://www.w3.org/2000/svg" xml:space="preserve" width="98.1842mm" height="6.541mm" version="1.1" style="shape-rendering:geometricPrecision; text-rendering:geometricPrecision; image-rendering:optimizeQuality; fill-rule:evenodd; clip-rule:evenodd"
viewBox="0 0 9818.42 654.1"
 xmlns:xlink="http://www.w3.org/1999/xlink"
 xmlns:xodm="http://www.corel.com/coreldraw/odm/2003">
 <defs>
  <style type="text/css">
   <![CDATA[
    .fil0 {fill:#4ADE80;fill-rule:nonzero}
    .fil1 {fill:#E6EDF3;fill-rule:nonzero}
   ]]>
  </style>
 </defs>
 <g id="Layer_x0020_1">
  <metadata id="CorelCorpID_0Corel-Layer"/>
  <g id="_2994941128688">
   <path class="fil0" d="M-0 330.87c0,-64.35 9.69,-118.42 28.94,-162.2 14.25,-32.18 33.94,-61.12 58.77,-86.69 24.83,-25.56 52.01,-44.52 81.54,-57.01 39.38,-16.6 84.78,-24.97 136.2,-24.97 93.15,0 167.49,28.94 223.47,86.68 55.83,57.89 83.75,138.26 83.75,241.25 0,102.11 -27.77,182.04 -83.16,239.63 -55.39,57.74 -129.59,86.54 -222.3,86.54 -93.88,0 -168.67,-28.65 -224.06,-86.1 -55.39,-57.3 -83.15,-136.34 -83.15,-237.13zm131.35 -4.26c0,71.55 16.6,125.76 49.66,162.79 33.05,36.88 75.07,55.39 125.91,55.39 50.98,0 92.71,-18.37 125.47,-54.95 32.62,-36.73 48.93,-91.68 48.93,-165 0,-72.43 -15.87,-126.5 -47.75,-162.05 -31.74,-35.7 -73.91,-53.48 -126.65,-53.48 -52.6,0 -95.06,18.07 -127.24,54.07 -32.17,36.14 -48.33,90.5 -48.33,163.23z"/>
   <path class="fil1" d="M757 642.64l0 -631.18 120.77 0 0 631.18 -120.77 0zm509.38 -144.57l120.77 20.27c-15.42,44.23 -39.96,77.87 -73.31,101.09 -33.5,23.06 -75.37,34.67 -125.47,34.67 -79.49,0 -138.41,-26.01 -176.46,-78.02 -30.12,-41.72 -45.25,-94.32 -45.25,-157.94 0,-75.81 19.83,-135.32 59.36,-178.22 39.52,-43.05 89.62,-64.5 150.15,-64.5 67.88,0 121.51,22.48 160.88,67.44 39.23,44.96 58.04,113.87 56.27,206.72l-302.36 0c0.88,35.85 10.57,63.77 29.23,83.75 18.52,19.98 41.73,29.97 69.35,29.97 18.96,0 34.82,-5.14 47.61,-15.43 12.92,-10.28 22.62,-26.88 29.23,-49.8zm7.06 -122.54c-0.89,-35.11 -9.85,-61.85 -27.04,-80.07 -17.19,-18.37 -38.05,-27.47 -62.73,-27.47 -26.3,0 -48.05,9.69 -65.24,28.94 -17.19,19.25 -25.56,45.55 -25.27,78.6l180.28 0zm214.35 267.11l0 -631.18 120.77 0 0 334.84 141.49 -161.18 148.98 0 -156.03 167.2 167.49 290.32 -130.47 0 -115.48 -206.43 -55.98 59.95 0 146.48 -120.77 0zm451.5 -128.7l121.65 -18.52c5.14,23.36 15.57,41.14 31.44,53.19 15.72,12.19 37.91,18.22 66.26,18.22 31.3,0 54.8,-5.73 70.67,-17.19 10.58,-8.08 15.87,-18.96 15.87,-32.47 0,-9.11 -2.94,-16.75 -8.67,-22.78 -6.02,-5.73 -19.54,-11.16 -40.4,-16.01 -97.71,-21.6 -159.56,-41.29 -185.71,-59.06 -36.29,-24.83 -54.37,-59.21 -54.37,-103.14 0,-39.82 15.73,-73.17 47.02,-100.21 31.29,-27.03 79.78,-40.55 145.45,-40.55 62.59,0 109.17,10.29 139.58,30.71 30.41,20.57 51.42,50.84 62.88,90.95l-113.71 21.15c-4.85,-17.92 -14.26,-31.73 -27.92,-41.28 -13.66,-9.55 -33.2,-14.25 -58.62,-14.25 -32.03,0 -54.95,4.4 -68.91,13.37 -9.26,6.31 -13.81,14.54 -13.81,24.53 0,8.67 3.97,16.02 12.05,22.04 11.02,8.08 48.78,19.39 113.42,34.09 64.65,14.69 109.75,32.61 135.32,53.92 25.42,21.45 38.05,51.57 38.05,90.06 0,41.88 -17.48,78.02 -52.6,108.14 -34.96,30.12 -86.83,45.25 -155.59,45.25 -62.29,0 -111.66,-12.64 -148.1,-37.76 -36.29,-25.12 -60.09,-59.21 -71.25,-102.4zm623.39 -187.77l-109.31 -19.4c12.34,-44.66 33.64,-77.72 63.76,-99.17 30.12,-21.45 74.93,-32.18 134.29,-32.18 53.92,0 94.18,6.32 120.62,19.1 26.3,12.79 44.96,28.95 55.69,48.64 10.72,19.68 16.16,55.68 16.16,108.28l-1.76 141.04c0,40.11 1.91,69.79 5.73,88.89 3.82,19.1 11.02,39.53 21.59,61.27l-119.89 0c-3.08,-7.93 -7.05,-19.69 -11.6,-35.26 -1.91,-7.2 -3.38,-11.9 -4.26,-14.11 -20.57,20.28 -42.61,35.41 -66.12,45.55 -23.51,10.14 -48.48,15.28 -75.08,15.28 -46.87,0 -83.89,-12.78 -110.92,-38.35 -27.04,-25.41 -40.55,-57.74 -40.55,-96.82 0,-25.71 6.17,-48.78 18.51,-69.05 12.34,-20.13 29.53,-35.71 51.86,-46.43 22.19,-10.73 54.22,-20.13 96.09,-28.21 56.42,-10.58 95.65,-20.57 117.39,-29.68l0 -12.19c0,-23.51 -5.73,-40.26 -17.19,-50.4 -11.61,-9.99 -33.35,-14.98 -65.23,-14.98 -21.6,0 -38.35,4.26 -50.4,12.92 -12.19,8.53 -21.89,23.66 -29.38,45.26zm162.2 97.85c-15.43,5.14 -39.96,11.31 -73.61,18.51 -33.5,7.2 -55.53,14.25 -65.82,21.01 -15.72,11.31 -23.65,25.42 -23.65,42.61 0,17.04 6.31,31.59 18.95,43.93 12.63,12.34 28.65,18.51 48.19,18.51 21.75,0 42.61,-7.2 62.44,-21.45 14.55,-11.02 24.25,-24.24 28.8,-40.11 3.09,-10.28 4.7,-29.97 4.7,-58.92l0 -24.09zm654.25 218.62l-120.77 0 0 -233.17c0,-49.36 -2.65,-81.25 -7.79,-95.64 -5.29,-14.55 -13.66,-25.72 -25.42,-33.8 -11.75,-8.08 -25.86,-12.04 -42.31,-12.04 -21.16,0 -40.11,5.73 -56.86,17.19 -16.9,11.46 -28.36,26.74 -34.53,45.54 -6.32,18.95 -9.4,53.92 -9.4,105.05l0 206.87 -120.77 0 0 -457.52 111.95 0 0 67.14c40.11,-51.27 90.51,-76.84 151.48,-76.84 26.74,0 51.28,4.85 73.46,14.4 22.34,9.7 39.08,21.89 50.4,36.73 11.46,14.99 19.39,31.89 23.8,50.84 4.55,18.95 6.76,45.99 6.76,81.25l0 284zm541.99 0l-111.95 0 0 -67.14c-18.66,26.15 -40.85,45.69 -66.26,58.91 -25.42,13.08 -51.13,19.69 -76.99,19.69 -52.75,0 -97.85,-21.16 -135.47,-63.62 -37.46,-42.46 -56.27,-101.52 -56.27,-177.48 0,-77.58 18.22,-136.64 54.81,-177.04 36.58,-40.41 82.71,-60.54 138.54,-60.54 51.13,0 95.5,21.31 132.82,63.77l0 -227.73 120.77 0 0 631.18zm-322.64 -237.58c0,48.93 6.76,84.34 20.13,106.23 19.54,31.74 46.72,47.6 81.69,47.6 27.77,0 51.42,-11.9 70.82,-35.7 19.54,-23.8 29.23,-59.21 29.23,-106.52 0,-52.74 -9.4,-90.65 -28.35,-113.86 -18.96,-23.22 -43.05,-34.82 -72.58,-34.82 -28.65,0 -52.6,11.46 -72,34.38 -19.24,22.92 -28.94,57.15 -28.94,102.69zm556.98 237.58l-120.77 0 0 -457.52 111.96 0 0 64.94c19.24,-30.71 36.58,-50.83 52.01,-60.38 15.43,-9.55 32.91,-14.26 52.45,-14.26 27.62,0 54.21,7.64 79.78,22.78l-37.47 105.49c-20.42,-13.23 -39.37,-19.84 -56.86,-19.84 -17.04,0 -31.44,4.7 -43.19,13.96 -11.76,9.4 -21.01,26.15 -27.77,50.54 -6.76,24.39 -10.14,75.52 -10.14,153.24l0 141.05z"/>
   <path class="fil0" d="M5119 642.64l-137.67 0 -54.51 -143.69 -253.15 0 -52.45 143.69 -135.17 0 245.07 -631.18 135.02 0 252.86 631.18zm-233.61 -250.36l-87.72 -233.61 -85.21 233.61 172.93 0z"/>
   <path class="fil1" d="M5237.37 642.64l0 -631.18 120.77 0 0 631.18 -120.77 0zm509.38 -144.57l120.77 20.27c-15.42,44.23 -39.96,77.87 -73.31,101.09 -33.5,23.06 -75.37,34.67 -125.47,34.67 -79.49,0 -138.41,-26.01 -176.46,-78.02 -30.12,-41.72 -45.25,-94.32 -45.25,-157.94 0,-75.81 19.83,-135.32 59.36,-178.22 39.52,-43.05 89.62,-64.5 150.15,-64.5 67.88,0 121.51,22.48 160.88,67.44 39.23,44.96 58.04,113.87 56.27,206.72l-302.36 0c0.88,35.85 10.57,63.77 29.23,83.75 18.52,19.98 41.73,29.97 69.35,29.97 18.96,0 34.82,-5.14 47.61,-15.43 12.92,-10.28 22.62,-26.88 29.23,-49.8zm7.06 -122.54c-0.89,-35.11 -9.85,-61.85 -27.04,-80.07 -17.19,-18.37 -38.05,-27.47 -62.73,-27.47 -26.3,0 -48.05,9.69 -65.24,28.94 -17.19,19.25 -25.56,45.55 -25.27,78.6l180.28 0zm214.35 267.11l0 -631.18 120.77 0 0 334.84 141.49 -161.18 148.98 0 -156.03 167.2 167.49 290.32 -130.47 0 -115.48 -206.43 -55.98 59.95 0 146.48 -120.77 0zm451.5 -128.7l121.65 -18.52c5.14,23.36 15.57,41.14 31.44,53.19 15.72,12.19 37.91,18.22 66.26,18.22 31.3,0 54.8,-5.73 70.67,-17.19 10.58,-8.08 15.87,-18.96 15.87,-32.47 0,-9.11 -2.94,-16.75 -8.67,-22.78 -6.02,-5.73 -19.54,-11.16 -40.4,-16.01 -97.71,-21.6 -159.56,-41.29 -185.71,-59.06 -36.29,-24.83 -54.37,-59.21 -54.37,-103.14 0,-39.82 15.73,-73.17 47.02,-100.21 31.29,-27.03 79.78,-40.55 145.45,-40.55 62.59,0 109.17,10.29 139.58,30.71 30.41,20.57 51.42,50.84 62.88,90.95l-113.71 21.15c-4.85,-17.92 -14.26,-31.73 -27.92,-41.28 -13.66,-9.55 -33.2,-14.25 -58.62,-14.25 -32.03,0 -54.95,4.4 -68.91,13.37 -9.26,6.31 -13.81,14.54 -13.81,24.53 0,8.67 3.97,16.02 12.05,22.04 11.02,8.08 48.78,19.39 113.42,34.09 64.65,14.69 109.75,32.61 135.32,53.92 25.42,21.45 38.05,51.57 38.05,90.06 0,41.88 -17.48,78.02 -52.6,108.14 -34.96,30.12 -86.83,45.25 -155.59,45.25 -62.29,0 -111.66,-12.64 -148.1,-37.76 -36.29,-25.12 -60.09,-59.21 -71.25,-102.4zm623.39 -187.77l-109.31 -19.4c12.34,-44.66 33.64,-77.72 63.76,-99.17 30.12,-21.45 74.93,-32.18 134.29,-32.18 53.92,0 94.18,6.32 120.62,19.1 26.3,12.79 44.96,28.95 55.69,48.64 10.72,19.68 16.16,55.68 16.16,108.28l-1.76 141.04c0,40.11 1.91,69.79 5.73,88.89 3.82,19.1 11.02,39.53 21.59,61.27l-119.89 0c-3.08,-7.93 -7.05,-19.69 -11.6,-35.26 -1.91,-7.2 -3.38,-11.9 -4.26,-14.11 -20.57,20.28 -42.61,35.41 -66.12,45.55 -23.51,10.14 -48.48,15.28 -75.08,15.28 -46.87,0 -83.89,-12.78 -110.92,-38.35 -27.04,-25.41 -40.55,-57.74 -40.55,-96.82 0,-25.71 6.17,-48.78 18.51,-69.05 12.34,-20.13 29.53,-35.71 51.86,-46.43 22.19,-10.73 54.22,-20.13 96.09,-28.21 56.42,-10.58 95.65,-20.57 117.39,-29.68l0 -12.19c0,-23.51 -5.73,-40.26 -17.19,-50.4 -11.61,-9.99 -33.35,-14.98 -65.23,-14.98 -21.6,0 -38.35,4.26 -50.4,12.92 -12.19,8.53 -21.89,23.66 -29.38,45.26zm162.2 97.85c-15.43,5.14 -39.96,11.31 -73.61,18.51 -33.5,7.2 -55.53,14.25 -65.82,21.01 -15.72,11.31 -23.65,25.42 -23.65,42.61 0,17.04 6.31,31.59 18.95,43.93 12.63,12.34 28.65,18.51 48.19,18.51 21.75,0 42.61,-7.2 62.44,-21.45 14.55,-11.02 24.25,-24.24 28.8,-40.11 3.09,-10.28 4.7,-29.97 4.7,-58.92l0 -24.09zm654.25 218.62l-120.77 0 0 -233.17c0,-49.36 -2.65,-81.25 -7.79,-95.64 -5.29,-14.55 -13.66,-25.72 -25.42,-33.8 -11.75,-8.08 -25.86,-12.04 -42.31,-12.04 -21.16,0 -40.11,5.73 -56.86,17.19 -16.9,11.46 -28.36,26.74 -34.53,45.54 -6.32,18.95 -9.4,53.92 -9.4,105.05l0 206.87 -120.77 0 0 -457.52 111.95 0 0 67.14c40.11,-51.27 90.51,-76.84 151.48,-76.84 26.74,0 51.28,4.85 73.46,14.4 22.34,9.7 39.08,21.89 50.4,36.73 11.46,14.99 19.39,31.89 23.8,50.84 4.55,18.95 6.76,45.99 6.76,81.25l0 284zm541.99 0l-111.95 0 0 -67.14c-18.66,26.15 -40.85,45.69 -66.26,58.91 -25.42,13.08 -51.13,19.69 -76.99,19.69 -52.75,0 -97.85,-21.16 -135.47,-63.62 -37.46,-42.46 -56.27,-101.52 -56.27,-177.48 0,-77.58 18.22,-136.64 54.81,-177.04 36.58,-40.41 82.71,-60.54 138.54,-60.54 51.13,0 95.5,21.31 132.82,63.77l0 -227.73 120.77 0 0 631.18zm-322.64 -237.58c0,48.93 6.76,84.34 20.13,106.23 19.54,31.74 46.72,47.6 81.69,47.6 27.77,0 51.42,-11.9 70.82,-35.7 19.54,-23.8 29.23,-59.21 29.23,-106.52 0,-52.74 -9.4,-90.65 -28.35,-113.86 -18.96,-23.22 -43.05,-34.82 -72.58,-34.82 -28.65,0 -52.6,11.46 -72,34.38 -19.24,22.92 -28.94,57.15 -28.94,102.69zm556.98 237.58l-120.77 0 0 -457.52 111.96 0 0 64.94c19.24,-30.71 36.58,-50.83 52.01,-60.38 15.43,-9.55 32.91,-14.26 52.45,-14.26 27.62,0 54.21,7.64 79.78,22.78l-37.47 105.49c-20.42,-13.23 -39.37,-19.84 -56.86,-19.84 -17.04,0 -31.44,4.7 -43.19,13.96 -11.76,9.4 -21.01,26.15 -27.77,50.54 -6.76,24.39 -10.14,75.52 -10.14,153.24l0 141.05zm199.38 -234.34c0,-40.26 9.85,-79.19 29.68,-116.81 19.83,-37.76 47.9,-66.41 84.19,-86.24 36.29,-19.84 76.69,-29.83 121.5,-29.83 69.2,0 125.77,22.48 169.99,67.44 44.23,45.11 66.27,101.82 66.27,170.58 0,69.35 -22.34,126.79 -66.85,172.34 -44.67,45.55 -100.79,68.32 -168.53,68.32 -41.87,0 -81.83,-9.55 -119.89,-28.5 -37.9,-18.96 -66.85,-46.72 -86.68,-83.46 -19.83,-36.58 -29.68,-81.24 -29.68,-133.84zm124.3 6.46c0,45.4 10.72,80.22 32.17,104.32 21.6,24.24 48.05,36.29 79.64,36.29 31.44,0 57.89,-12.05 79.19,-36.29 21.3,-24.1 32.03,-59.21 32.03,-105.2 0,-44.81 -10.73,-79.34 -32.03,-103.43 -21.3,-24.25 -47.75,-36.29 -79.19,-36.29 -31.59,0 -58.04,12.04 -79.64,36.29 -21.45,24.09 -32.17,58.91 -32.17,104.31zm568.15 227.88l-184.39 -457.52 126.94 0 86.1 233.46 24.97 78.02c6.62,-19.84 10.88,-32.91 12.49,-39.23 4.12,-12.93 8.38,-25.86 13.08,-38.79l87.27 -233.46 124.3 0 -181.75 457.52 -109.01 0z"/>
  </g>
 </g>
</svg>
